<svg width="45" height="45" viewBox="0 0 45 45" fill="none" xmlns="http://www.w3.org/2000/svg">
<g clip-path="url(#clip0_576_398)">
<path d="M22.5 0C16.5326 0 10.8097 2.37053 6.5901 6.5901C2.37053 10.8097 0 16.5326 0 22.5C0 28.4674 2.37053 34.1903 6.5901 38.4099C10.8097 42.6295 16.5326 45 22.5 45C28.4674 45 34.1903 42.6295 38.4099 38.4099C42.6295 34.1903 45 28.4674 45 22.5C45 16.5326 42.6295 10.8097 38.4099 6.5901C34.1903 2.37053 28.4674 0 22.5 0Z" fill="#0091FB"/>
<path d="M31.8281 14.0625L28.3163 31.9931C28.3163 31.9931 28.1653 32.8125 27.1491 32.8125C26.6091 32.8125 26.3306 32.5556 26.3306 32.5556L18.7238 26.2434L15.0019 24.3675L10.2253 23.0972C10.2253 23.0972 9.375 22.8516 9.375 22.1484C9.375 21.5625 10.2497 21.2831 10.2497 21.2831L30.2334 13.3444C30.2334 13.3444 30.8438 13.1241 31.2891 13.125C31.5628 13.125 31.875 13.2422 31.875 13.5938C31.875 13.8281 31.8281 14.0625 31.8281 14.0625Z" fill="white"/>
<path d="M21.5623 28.5985L18.3504 31.7616C18.3504 31.7616 18.2107 31.8694 18.0242 31.8741C17.9595 31.876 17.8901 31.8656 17.8188 31.8338L18.7226 26.2416L21.5623 28.5985Z" fill="#B0BEC5"/>
<path d="M28.0284 17.0588C27.87 16.8525 27.5775 16.815 27.3712 16.9716L15 24.375C15 24.375 16.9744 29.8988 17.2753 30.855C17.5772 31.8122 17.8191 31.8347 17.8191 31.8347L18.7228 26.2425L27.9403 17.715C28.1466 17.5585 28.185 17.265 28.0284 17.0588Z" fill="#CFD8DC"/>
</g>
<defs>
<clipPath id="clip0_576_398">
<rect width="45" height="45" fill="white"/>
</clipPath>
</defs>
</svg>
